name Run_300 02_newCOP3_v24.mot
datacolumns 19
datarows 111
range 1.41 1.465
DataType=double
version=3
OpenSimVersion=4.3-2021-08-27-4bc7ad9
endheader
time	R_ground_force_vx	R_ground_force_vy	R_ground_force_vz	R_ground_force_px	R_ground_force_py	R_ground_force_pz	L_ground_force_vx	L_ground_force_vy	L_ground_force_vz	L_ground_force_px	L_ground_force_py	L_ground_force_pz	R_ground_torque_x	R_ground_torque_y	R_ground_torque_z	L_ground_torque_x	L_ground_torque_y	L_ground_torque_z
1.41	35.843441	88.873344	3.165822	0.630256	0	-0.260483	0	0	0	0	0	0	-0	1.320949	-0	0	0	0
1.4105	34.771423	85.745705	3.067466	0.630248	0	-0.260238	0	0	0	0	0	0	-0	1.338486	-0	0	0	0
1.411	33.718311	82.686035	2.96871	0.630265	0	-0.259993	0	0	0	0	0	0	-0	1.355234	-0	0	0	0
1.4115	32.684025	79.694405	2.869837	0.630311	0	-0.259746	0	0	0	0	0	0	-0	1.371185	-0	0	0	0
1.412	31.668468	76.770905	2.77113	0.630391	0	-0.259497	0	0	0	0	0	0	-0	1.386334	-0	0	0	0
1.4125	30.671541	73.915588	2.672876	0.630508	0	-0.259244	0	0	0	0	0	0	-0	1.400675	-0	0	0	0
1.413	29.693132	71.128502	2.575357	0.630669	0	-0.258985	0	0	0	0	0	0	-0	1.414204	-0	0	0	0
1.4135	28.73313	68.409676	2.478853	0.630878	0	-0.258719	0	0	0	0	0	0	-0	1.426916	-0	0	0	0
1.414	27.791416	65.759094	2.383639	0.631142	0	-0.258444	0	0	0	0	0	0	-0	1.438808	-0	0	0	0
1.4145	26.86787	63.176739	2.28998	0.631467	0	-0.258157	0	0	0	0	0	0	-0	1.449876	-0	0	0	0
1.415	25.962372	60.662525	2.198134	0.631862	0	-0.257856	0	0	0	0	0	0	-0	1.460117	-0	0	0	0
1.4155	25.074802	58.216347	2.108348	0.632333	0	-0.257538	0	0	0	0	0	0	-0	1.469529	-0	0	0	0
1.416	24.205044	55.838055	2.020855	0.632891	0	-0.2572	0	0	0	0	0	0	-0	1.47811	-0	0	0	0
1.4165	23.352978	53.527451	1.935877	0.633543	0	-0.256838	0	0	0	0	0	0	-0	1.48586	-0	0	0	0
1.417	22.518492	51.284279	1.853616	0.6343	0	-0.256449	0	0	0	0	0	0	-0	1.492777	-0	0	0	0
1.4175	21.701479	49.108242	1.77426	0.635174	0	-0.256028	0	0	0	0	0	0	-0	1.498862	-0	0	0	0
1.418	20.901833	46.998981	1.697979	0.636175	0	-0.255571	0	0	0	0	0	0	-0	1.504115	-0	0	0	0
1.4185	20.119453	44.956081	1.624922	0.637316	0	-0.255072	0	0	0	0	0	0	-0	1.508536	-0	0	0	0
1.419	19.354246	42.979061	1.555221	0.63861	0	-0.254525	0	0	0	0	0	0	-0	1.512126	-0	0	0	0
1.4195	18.606125	41.067383	1.488983	0.64007	0	-0.253924	0	0	0	0	0	0	-0	1.514889	-0	0	0	0
1.42	17.875008	39.220451	1.426298	0.641713	0	-0.253263	0	0	0	0	0	0	-0	1.516826	-0	0	0	0
1.4205	17.160814	37.437592	1.367231	0.643552	0	-0.252535	0	0	0	0	0	0	-0	1.517941	-0	0	0	0
1.421	16.463478	35.718079	1.311826	0.645604	0	-0.251731	0	0	0	0	0	0	-0	1.518235	-0	0	0	0
1.4215	15.782932	34.061115	1.260105	0.647887	0	-0.250843	0	0	0	0	0	0	-0	1.517714	-0	0	0	0
1.422	15.119121	32.465839	1.212067	0.650416	0	-0.249861	0	0	0	0	0	0	-0	1.516382	-0	0	0	0
1.4225	14.471989	30.931328	1.167691	0.65321	0	-0.248777	0	0	0	0	0	0	-0	1.514243	-0	0	0	0
1.423	13.841491	29.456593	1.126932	0.656289	0	-0.247579	0	0	0	0	0	0	-0	1.511303	-0	0	0	0
1.4235	13.227584	28.040585	1.089725	0.6596689999999999	0	-0.246257	0	0	0	0	0	0	-0	1.507568	-0	0	0	0
1.424	12.630229	26.682194	1.055985	0.663371	0	-0.244799	0	0	0	0	0	0	-0	1.503043	-0	0	0	0
1.4245	12.049391	25.380259	1.025606	0.667413	0	-0.243193	0	0	0	0	0	0	-0	1.497736	-0	0	0	0
1.425	11.485038	24.133554	0.998465	0.671814	0	-0.241426	0	0	0	0	0	0	-0	1.491654	-0	0	0	0
1.4255	10.937137	22.940815	0.974421	0.676594	0	-0.239484	0	0	0	0	0	0	-0	1.484804	-0	0	0	0
1.426	10.405658	21.800718	0.9533160000000001	0.68177	0	-0.237353	0	0	0	0	0	0	-0	1.477194	-0	0	0	0
1.4265	9.89057	20.711903	0.934978	0.68736	0	-0.23502	0	0	0	0	0	0	-0	1.468833	-0	0	0	0
1.427	9.391836	19.672968	0.919221	0.69338	0	-0.232469	0	0	0	0	0	0	-0	1.45973	-0	0	0	0
1.4275	8.909419	18.682472	0.905846	0.699846	0	-0.229686	0	0	0	0	0	0	-0	1.449894	-0	0	0	0
1.428	8.443275	17.738953	0.8946460000000001	0.706771	0	-0.226656	0	0	0	0	0	0	-0	1.439334	-0	0	0	0
1.4285	7.993355	16.84091	0.8854030000000001	0.714168	0	-0.223363	0	0	0	0	0	0	-0	1.428061	-0	0	0	0
1.429	7.559595	15.986829	0.877893	0.722045	0	-0.219794	0	0	0	0	0	0	-0	1.416086	-0	0	0	0
1.4295	7.141928	15.175179	0.871887	0.730411	0	-0.215932	0	0	0	0	0	0	-0	1.403418	-0	0	0	0
1.43	6.740269	14.404413	0.867151	0.739268	0	-0.211766	0	0	0	0	0	0	-0	1.39007	-0	0	0	0
1.4305	6.354521	13.672983	0.863451	0.74862	0	-0.20728	0	0	0	0	0	0	-0	1.376053	-0	0	0	0
1.431	5.984573	12.979336	0.860553	0.758463	0	-0.202464	0	0	0	0	0	0	-0	1.361379	-0	0	0	0
1.4315	5.630294	12.321922	0.858224	0.768792	0	-0.197307	0	0	0	0	0	0	-0	1.346061	-0	0	0	0
1.432	5.291536	11.6992	0.856235	0.779598	0	-0.191798	0	0	0	0	0	0	-0	1.33011	-0	0	0	0
1.4325	4.968129	11.10964	0.854362	0.790865	0	-0.18593	0	0	0	0	0	0	-0	1.31354	-0	0	0	0
1.433	4.659884	10.551729	0.852389	0.802578	0	-0.179697	0	0	0	0	0	0	-0	1.296365	-0	0	0	0
1.4335	4.366589	10.023976	0.850109	0.814712	0	-0.173094	0	0	0	0	0	0	-0	1.278598	-0	0	0	0
1.434	0	0	0	0	0	0	0	0	0	0	0	0	0	0	0	0	0	0
1.4345	0	0	0	0	0	0	0	0	0	0	0	0	0	0	0	0	0	0
1.435	0	0	0	0	0	0	0	0	0	0	0	0	0	0	0	0	0	0
1.4355	0	0	0	0	0	0	0	0	0	0	0	0	0	0	0	0	0	0
1.436	0	0	0	0	0	0	0	0	0	0	0	0	0	0	0	0	0	0
1.4365	0	0	0	0	0	0	0	0	0	0	0	0	0	0	0	0	0	0
1.437	0	0	0	0	0	0	0	0	0	0	0	0	0	0	0	0	0	0
1.4375	0	0	0	0	0	0	0	0	0	0	0	0	0	0	0	0	0	0
1.438	0	0	0	0	0	0	0	0	0	0	0	0	0	0	0	0	0	0
1.4385	0	0	0	0	0	0	0	0	0	0	0	0	0	0	0	0	0	0
1.439	0	0	0	0	0	0	0	0	0	0	0	0	0	0	0	0	0	0
1.4395	0	0	0	0	0	0	0	0	0	0	0	0	0	0	0	0	0	0
1.44	0	0	0	0	0	0	0	0	0	0	0	0	0	0	0	0	0	0
1.4405	0	0	0	0	0	0	0	0	0	0	0	0	0	0	0	0	0	0
1.441	0	0	0	0	0	0	0	0	0	0	0	0	0	0	0	0	0	0
1.4415	0	0	0	0	0	0	0	0	0	0	0	0	0	0	0	0	0	0
1.442	0	0	0	0	0	0	0	0	0	0	0	0	0	0	0	0	0	0
1.4425	0	0	0	0	0	0	0	0	0	0	0	0	0	0	0	0	0	0
1.443	0	0	0	0	0	0	0	0	0	0	0	0	0	0	0	0	0	0
1.4435	0	0	0	0	0	0	0	0	0	0	0	0	0	0	0	0	0	0
1.444	0	0	0	0	0	0	0	0	0	0	0	0	0	0	0	0	0	0
1.4445	0	0	0	0	0	0	0	0	0	0	0	0	0	0	0	0	0	0
1.445	0	0	0	0	0	0	0	0	0	0	0	0	0	0	0	0	0	0
1.4455	0	0	0	0	0	0	0	0	0	0	0	0	0	0	0	0	0	0
1.446	0	0	0	0	0	0	0	0	0	0	0	0	0	0	0	0	0	0
1.4465	0	0	0	0	0	0	0	0	0	0	0	0	0	0	0	0	0	0
1.447	0	0	0	0	0	0	0	0	0	0	0	0	0	0	0	0	0	0
1.4475	0	0	0	0	0	0	0	0	0	0	0	0	0	0	0	0	0	0
1.448	0	0	0	0	0	0	0	0	0	0	0	0	0	0	0	0	0	0
1.4485	0	0	0	0	0	0	0	0	0	0	0	0	0	0	0	0	0	0
1.449	0	0	0	0	0	0	0	0	0	0	0	0	0	0	0	0	0	0
1.4495	0	0	0	0	0	0	0	0	0	0	0	0	0	0	0	0	0	0
1.45	0	0	0	0	0	0	0	0	0	0	0	0	0	0	0	0	0	0
1.4505	0	0	0	0	0	0	0	0	0	0	0	0	0	0	0	0	0	0
1.451	0	0	0	0	0	0	0	0	0	0	0	0	0	0	0	0	0	0
1.4515	0	0	0	0	0	0	0	0	0	0	0	0	0	0	0	0	0	0
1.452	0	0	0	0	0	0	0	0	0	0	0	0	0	0	0	0	0	0
1.4525	0	0	0	0	0	0	0	0	0	0	0	0	0	0	0	0	0	0
1.453	0	0	0	0	0	0	0	0	0	0	0	0	0	0	0	0	0	0
1.4535	0	0	0	0	0	0	0	0	0	0	0	0	0	0	0	0	0	0
1.454	0	0	0	0	0	0	0	0	0	0	0	0	0	0	0	0	0	0
1.4545	0	0	0	0	0	0	0	0	0	0	0	0	0	0	0	0	0	0
1.455	0	0	0	0	0	0	0	0	0	0	0	0	0	0	0	0	0	0
1.4555	0	0	0	0	0	0	0	0	0	0	0	0	0	0	0	0	0	0
1.456	0	0	0	0	0	0	0	0	0	0	0	0	0	0	0	0	0	0
1.4565	0	0	0	0	0	0	0	0	0	0	0	0	0	0	0	0	0	0
1.457	0	0	0	0	0	0	0	0	0	0	0	0	0	0	0	0	0	0
1.4575	0	0	0	0	0	0	0	0	0	0	0	0	0	0	0	0	0	0
1.458	0	0	0	0	0	0	0	0	0	0	0	0	0	0	0	0	0	0
1.4585	0	0	0	0	0	0	0	0	0	0	0	0	0	0	0	0	0	0
1.459	0	0	0	0	0	0	0	0	0	0	0	0	0	0	0	0	0	0
1.4595	0	0	0	0	0	0	0	0	0	0	0	0	0	0	0	0	0	0
1.46	0	0	0	0	0	0	0	0	0	0	0	0	0	0	0	0	0	0
1.4605	0	0	0	0	0	0	0	0	0	0	0	0	0	0	0	0	0	0
1.461	0	0	0	0	0	0	0	0	0	0	0	0	0	0	0	0	0	0
1.4615	0	0	0	0	0	0	0	0	0	0	0	0	0	0	0	0	0	0
1.462	0	0	0	0	0	0	0	0	0	0	0	0	0	0	0	0	0	0
1.4625	0	0	0	0	0	0	0	0	0	0	0	0	0	0	0	0	0	0
1.463	0	0	0	0	0	0	0	0	0	0	0	0	0	0	0	0	0	0
1.4635	0	0	0	0	0	0	0	0	0	0	0	0	0	0	0	0	0	0
1.464	0	0	0	0	0	0	0	0	0	0	0	0	0	0	0	0	0	0
1.4645	0	0	0	0	0	0	0	0	0	0	0	0	0	0	0	0	0	0
1.465	0	0	0	0	0	0	0	0	0	0	0	0	0	0	0	0	0	0
